# xmcd
#
# Track frame offsets:
#	150
#	16097
#	33732
#	48835
#	68780
#	87102
#	105325
#	119505
#	140162
#	156762
#
# Disc length: 2331 seconds
#
# Revision: 3
# Processed by: cddbd v1.5.2PL0 Copyright (c) Steve Scherf et al.
# Submitted via: EasyCDDAExtractor 2010.6.0.0
#
DISCID=7d09190a
DTITLE=Cash, Rosanne - King's Record Shop
DYEAR=1987
DGENRE=Country
TTITLE0=Rosie Strike Back
TTITLE1=The Way We Make a Broken Heart
TTITLE2=If You Change Your Mind
TTITLE3=The Real Me
TTITLE4=Somewhere Sometime
TTITLE5=Runaway Train
TTITLE6=Tennessee Flat Top Box
TTITLE7=I  Don't Have To Crawl
TTITLE8=Green, Yellow and Red
TTITLE9=Why Don't You Quit Leaving Me Alone
EXTD=
EXTT0=
EXTT1=
EXTT2=
EXTT3=
EXTT4=
EXTT5=
EXTT6=
EXTT7=
EXTT8=
EXTT9=
PLAYORDER=
